<svg xmlns="http://www.w3.org/2000/svg" xmlns:xlink="http://www.w3.org/1999/xlink" viewBox="0 0 40 40"><path fill="#dbb065" d="M1.5 35.5L1.5 4.5 11.793 4.5 14.793 7.5 38.5 7.5 38.5 35.5z"/><path fill="#967a44" d="M11.586,5l2.707,2.707L14.586,8H15h23v27H2V5H11.586 M12,4H1v32h38V7H15L12,4L12,4z"/><path fill="#f5ce85" d="M1.5 35.5L1.5 9.5 12.151 9.5 15.151 7.5 38.5 7.5 38.5 35.5z"/><path fill="#967a44" d="M38,8v27H2V10h10h0.303l0.252-0.168L15.303,8H38 M39,7H15l-3,2H1v27h38V7L39,7z"/><path fill="#8bb7f0" d="M13 31H27V32H13z"/><path fill="#4e7ab5" d="M27 31L13 31 13 32 27 32 27 31z"/><g><path fill="#8bb7f0" d="M15.087 24.5L18.5 24.5 18.5 17.5 21.5 17.5 21.5 24.5 24.913 24.5 20 30.232z"/><path fill="#4e7ab5" d="M21,18v6v1h1h1.826L20,29.463L16.174,25H18h1v-1v-6H21 M22,17h-4v7h-4l6,7l6-7h-4V17L22,17z"/></g><g><path fill="#8bb7f0" d="M18 15H22V16H18z"/><path fill="#4e7ab5" d="M22 15L18 15 18 16 22 16 22 15z"/></g><g><path fill="#8bb7f0" d="M18 13H22V14H18z"/><path fill="#4e7ab5" d="M22 13L18 13 18 14 22 14 22 13z"/></g></svg>