<svg xmlns="http://www.w3.org/2000/svg" xmlns:xlink="http://www.w3.org/1999/xlink" viewBox="0 0 80 80"><polygon fill="#f5ce85" points="69.5,0.5 4.5,0.5 4.5,9.5 6.5,9.5 6.5,55.5 67.5,55.5 67.5,9.5 69.5,9.5"/><path fill="#967a44" d="M6,9.022V56h62V9.022H6z M67,55H7V10h60V55z"/><path fill="#967a44" d="M69,1v8H5V1H69 M70,0H4v10h66V0L70,0z"/><polygon fill="#967a44" points="32,43.414 20.793,32.207 22.207,30.793 32,40.586 53.793,18.793 55.207,20.207"/><path fill="#e1f5ff" d="M67,75.5H2v-21h65c5.79,0,10.5,4.71,10.5,10.5S72.79,75.5,67,75.5z"/><path fill="#7496c4" d="M67,54H2v1h65c5.514,0,10,4.486,10,10s-4.486,10-10,10H2v1h65c6.05,0,11-4.95,11-11C78,58.95,73.05,54,67,54z"/><circle cx="67" cy="65" r="5" fill="#b5ddf5"/><circle cx="53" cy="65" r="5" fill="#b5ddf5"/><circle cx="39" cy="65" r="5" fill="#b5ddf5"/><circle cx="25" cy="65" r="5" fill="#b5ddf5"/><circle cx="11" cy="65" r="5" fill="#b5ddf5"/></svg>