<svg xmlns="http://www.w3.org/2000/svg" xmlns:xlink="http://www.w3.org/1999/xlink" viewBox="0 0 40 40"><path fill="#dbb065" d="M1.5 35.5L1.5 4.5 11.793 4.5 14.793 7.5 38.5 7.5 38.5 35.5z"/><path fill="#967a44" d="M11.586,5l2.707,2.707L14.586,8H15h23v27H2V5H11.586 M12,4H1v32h38V7H15L12,4L12,4z"/><path fill="#f5ce85" d="M1.5 35.5L1.5 9.5 12.151 9.5 15.151 7.5 38.5 7.5 38.5 35.5z"/><path fill="#967a44" d="M38,8v27H2V10h10h0.303l0.252-0.168L15.303,8H38 M39,7H15l-3,2H1v27h38V7L39,7z"/><g><path fill="#f78f8f" d="M20.5 26L20.5 12.862 26.5 16.29 26.5 20.145 21.5 17.333 21.5 26z"/><path fill="#c74343" d="M21,13.723l5,2.857v2.71l-3.51-1.974L21,16.478v1.71V25.5V13.723 M20,12v14.5h2v-8.312L27,21v-5 L20,12L20,12z"/></g><g><path fill="#f78f8f" d="M17.5,30.5c-2.206,0-4-1.794-4-4s1.794-4,4-4s4,1.794,4,4S19.706,30.5,17.5,30.5z"/><path fill="#c74343" d="M17.5,23c1.93,0,3.5,1.57,3.5,3.5S19.43,30,17.5,30S14,28.43,14,26.5S15.57,23,17.5,23 M17.5,22 c-2.485,0-4.5,2.015-4.5,4.5s2.015,4.5,4.5,4.5s4.5-2.015,4.5-4.5S19.985,22,17.5,22L17.5,22z"/></g></svg>