<?xml version="1.0" encoding="UTF-8"?>
<svg xmlns="http://www.w3.org/2000/svg" xmlns:xlink="http://www.w3.org/1999/xlink" width="16pt" height="16pt" viewBox="0 0 16 16" version="1.1">
<g id="surface1">
<path style=" stroke:none;fill-rule:nonzero;fill:rgb(0,0,0);fill-opacity:1;" d="M 1.601562 1.28125 C 1.070312 1.28125 0.640625 1.710938 0.640625 2.238281 L 0.640625 4.160156 L 15.359375 4.160156 L 15.359375 3.519531 C 15.359375 2.992188 14.929688 2.558594 14.398438 2.558594 L 5.773438 2.5625 C 5.683594 2.53125 5.5 2.234375 5.402344 2.078125 C 5.15625 1.6875 4.902344 1.28125 4.480469 1.28125 Z M 0.960938 4.800781 C 0.785156 4.800781 0.640625 4.945312 0.640625 5.121094 L 0.640625 13.761719 C 0.640625 14.289062 1.070312 14.71875 1.601562 14.71875 L 14.398438 14.71875 C 14.929688 14.71875 15.359375 14.289062 15.359375 13.761719 L 15.359375 5.121094 C 15.359375 4.945312 15.214844 4.800781 15.039062 4.800781 Z M 0.960938 4.800781 "/>
</g>
</svg>
