<svg xmlns="http://www.w3.org/2000/svg" xmlns:xlink="http://www.w3.org/1999/xlink" viewBox="0 0 64 64">
<path fill="#2c6f71"  d="M55,6H9C7.346,6,6,7.346,6,9v46c0,1.654,1.346,3,3,3h46c1.654,0,3-1.346,3-3V9C58,7.346,56.654,6,55,6z M56,55c0,0.552-0.449,1-1,1H9c-0.551,0-1-0.448-1-1V9c0-0.552,0.449-1,1-1h46c0.551,0,1,0.448,1,1V55z"/>
<path fill="#2c6f71"  d="M42,49.962c-0.552,0-1,0.447-1,1v2c0,0.553,0.448,1,1,1s1-0.447,1-1v-2C43,50.409,42.552,49.962,42,49.962z"/><path d="M37,49.962c-0.552,0-1,0.447-1,1v2c0,0.553,0.448,1,1,1s1-0.447,1-1v-2C38,50.409,37.552,49.962,37,49.962z"/><path d="M32,49.962c-0.552,0-1,0.447-1,1v2c0,0.553,0.448,1,1,1s1-0.447,1-1v-2C33,50.409,32.552,49.962,32,49.962z"/><path d="M27,49.962c-0.552,0-1,0.447-1,1v2c0,0.553,0.448,1,1,1s1-0.447,1-1v-2C28,50.409,27.552,49.962,27,49.962z"/><path d="M22,49.962c-0.552,0-1,0.447-1,1v2c0,0.553,0.448,1,1,1s1-0.447,1-1v-2C23,50.409,22.552,49.962,22,49.962z"/><path d="M17,49.962c-0.552,0-1,0.447-1,1v2c0,0.553,0.448,1,1,1s1-0.447,1-1v-2C18,50.409,17.552,49.962,17,49.962z"/><path d="M12,49.962c-0.552,0-1,0.447-1,1v2c0,0.553,0.448,1,1,1s1-0.447,1-1v-2C13,50.409,12.552,49.962,12,49.962z"/><path d="M52,49.962c-0.552,0-1,0.447-1,1v2c0,0.553,0.448,1,1,1s1-0.447,1-1v-2C53,50.409,52.552,49.962,52,49.962z"/><path d="M47,49.962c-0.552,0-1,0.447-1,1v2c0,0.553,0.448,1,1,1s1-0.447,1-1v-2C48,50.409,47.552,49.962,47,49.962z"/><path d="M45,10H11c-0.552,0-1,0.447-1,1s0.448,1,1,1h34c0.552,0,1-0.447,1-1S45.552,10,45,10z"/>
<path fill="#2c6f71"  d="M53,10h-4c-0.552,0-1,0.447-1,1s0.448,1,1,1h4c0.552,0,1-0.447,1-1S53.552,10,53,10z"/></svg>