<svg xmlns="http://www.w3.org/2000/svg" xmlns:xlink="http://www.w3.org/1999/xlink" viewBox="0 0 80 80">
<path fill="none" stroke="#2c6f71" stroke-width="2" d="M45 71H20c-2.209 0-4-1.791-4-4V18h48v26M47 14H33v-3c0-1.105.895-2 2-2h10c1.105 0 2 .895 2 2V14zM66 18H14c-1.105 0-2-.895-2-2l0 0c0-1.105.895-2 2-2h52c1.105 0 2 .895 2 2l0 0C68 17.105 67.105 18 66 18z"/><path d="M49 35A1 1 0 1 0 49 37 1 1 0 1 0 49 35zM49 39A1 1 0 1 0 49 41 1 1 0 1 0 49 39zM49 43A1 1 0 1 0 49 45 1 1 0 1 0 49 43zM49 47A1 1 0 1 0 49 49 1 1 0 1 0 49 47zM49 31A1 1 0 1 0 49 33 1 1 0 1 0 49 31zM49 51A1 1 0 1 0 49 53 1 1 0 1 0 49 51zM49 27A1 1 0 1 0 49 29 1 1 0 1 0 49 27zM49 23A1 1 0 1 0 49 25 1 1 0 1 0 49 23zM49 63A1 1 0 1 0 49 65 1 1 0 1 0 49 63zM31 35A1 1 0 1 0 31 37 1 1 0 1 0 31 35zM31 39A1 1 0 1 0 31 41 1 1 0 1 0 31 39zM31 43A1 1 0 1 0 31 45 1 1 0 1 0 31 43zM31 47A1 1 0 1 0 31 49 1 1 0 1 0 31 47zM31 31A1 1 0 1 0 31 33 1 1 0 1 0 31 31zM31 51A1 1 0 1 0 31 53 1 1 0 1 0 31 51zM31 55A1 1 0 1 0 31 57 1 1 0 1 0 31 55zM31 59A1 1 0 1 0 31 61 1 1 0 1 0 31 59zM31 27A1 1 0 1 0 31 29 1 1 0 1 0 31 27zM31 23A1 1 0 1 0 31 25 1 1 0 1 0 31 23zM31 63A1 1 0 1 0 31 65 1 1 0 1 0 31 63zM22 35A1 1 0 1 0 22 37 1 1 0 1 0 22 35zM22 39A1 1 0 1 0 22 41 1 1 0 1 0 22 39zM22 43A1 1 0 1 0 22 45 1 1 0 1 0 22 43zM22 47A1 1 0 1 0 22 49 1 1 0 1 0 22 47zM22 31A1 1 0 1 0 22 33 1 1 0 1 0 22 31zM22 51A1 1 0 1 0 22 53 1 1 0 1 0 22 51zM22 55A1 1 0 1 0 22 57 1 1 0 1 0 22 55zM22 59A1 1 0 1 0 22 61 1 1 0 1 0 22 59zM22 27A1 1 0 1 0 22 29 1 1 0 1 0 22 27zM22 23A1 1 0 1 0 22 25 1 1 0 1 0 22 23zM22 63A1 1 0 1 0 22 65 1 1 0 1 0 22 63zM58 35A1 1 0 1 0 58 37 1 1 0 1 0 58 35zM58 39A1 1 0 1 0 58 41 1 1 0 1 0 58 39zM58 43A1 1 0 1 0 58 45 1 1 0 1 0 58 43zM58 31A1 1 0 1 0 58 33 1 1 0 1 0 58 31zM58 27A1 1 0 1 0 58 29 1 1 0 1 0 58 27zM58 23A1 1 0 1 0 58 25 1 1 0 1 0 58 23z"/><path fill="none" stroke="#d36060" stroke-width="2" d="M69 59L59 69M69 69L59 59M64 49A15 15 0 1 0 64 79 15 15 0 1 0 64 49z"/>
<path d="M47.05 70H43v2h4.899C47.577 71.354 47.294 70.687 47.05 70zM64 46c.338 0 .667.032 1 .051V43h-2v3.051C63.333 46.032 63.662 46 64 46z"/>
</svg>