<svg xmlns="http://www.w3.org/2000/svg" xmlns:xlink="http://www.w3.org/1999/xlink" viewBox="0 0 64 64">
<path fill="#2c6f71" d="M28.1,52.73l30-19.89a2,2,0,0,0,0-3.33l-30-20.23A2,2,0,0,0,25,10.94V51.06A2,2,0,0,0,28.1,52.73Z"/><path fill="#5dbc9d" d="M50.24,32.39,31.14,44.7A2.42,2.42,0,0,0,30.38,48h0a2.42,2.42,0,0,0,3.38.79L52.89,36.5a2.42,2.42,0,0,0,.75-3.31l0,0A2.42,2.42,0,0,0,50.24,32.39Z"/>
<rect width="10" height="44" x="9" y="8.98" fill="#2c6f71" rx="2" ry="2"/><path fill="#2c6f71" d="M8.99 9.01H13.99V53.01H8.99z"/><path fill="#8d6c9f" d="M58.7,28.68l-30-20.23A3,3,0,0,0,24,10.94V51.06a3,3,0,0,0,4.66,2.5l30-19.89a3,3,0,0,0,0-5ZM57.57,32l-30,19.89A1,1,0,0,1,26,51.06V10.94a1,1,0,0,1,.53-.88A1,1,0,0,1,27,9.94a1,1,0,0,1,.55.17l30,20.23a1,1,0,0,1,0,1.66Z"/><path fill="#8d6c9f" d="M48.83 32.33L47.1 33.44a1 1 0 1 0 1.08 1.68L49.91 34a1 1 0 1 0-1.08-1.68zM43.62 35.67L31.56 43.4a1 1 0 1 0 1.08 1.68L44.7 37.35a1 1 0 1 0-1.08-1.68zM15 22H13a1 1 0 0 0 0 2h2a1 1 0 0 0 0-2zM15 27H13a1 1 0 0 0 0 2h2a1 1 0 0 0 0-2zM15 32H13a1 1 0 0 0 0 2h2a1 1 0 0 0 0-2zM15 37H13a1 1 0 0 0 0 2h2a1 1 0 0 0 0-2zM15 42H13a1 1 0 0 0 0 2h2a1 1 0 0 0 0-2zM15 47H13a1 1 0 0 0 0 2h2a1 1 0 0 0 0-2zM15 12H13a1 1 0 0 0 0 2h2a1 1 0 0 0 0-2zM15 17H13a1 1 0 0 0 0 2h2a1 1 0 0 0 0-2z"/><path fill="#8d6c9f" d="M17,8H11a3,3,0,0,0-3,3V51a3,3,0,0,0,3,3h6a3,3,0,0,0,3-3V11A3,3,0,0,0,17,8Zm1,43a1,1,0,0,1-1,1H11a1,1,0,0,1-1-1V11a1,1,0,0,1,1-1h6a1,1,0,0,1,1,1Z"/></svg>