<?xml version="1.0" encoding="UTF-8"?>
<svg xmlns="http://www.w3.org/2000/svg" xmlns:xlink="http://www.w3.org/1999/xlink" width="16pt" height="16pt" viewBox="0 0 16 16" version="1.1">
<g id="surface1">
<path style=" stroke:none;fill-rule:nonzero;fill:#3a3c42;fill-opacity:1;" d="M 8 0.640625 C 3.941406 0.640625 0.640625 3.941406 0.640625 8 C 0.640625 12.058594 3.941406 15.359375 8 15.359375 C 12.058594 15.359375 15.359375 12.058594 15.359375 8 C 15.363281 7.769531 15.242188 7.554688 15.042969 7.4375 C 14.84375 7.320312 14.597656 7.320312 14.398438 7.4375 C 14.199219 7.554688 14.078125 7.769531 14.078125 8 C 14.078125 11.367188 11.367188 14.078125 8 14.078125 C 4.632812 14.078125 1.921875 11.367188 1.921875 8 C 1.921875 4.632812 4.632812 1.921875 8 1.921875 C 9.753906 1.921875 11.324219 2.660156 12.433594 3.839844 L 11.199219 3.839844 C 10.96875 3.835938 10.753906 3.957031 10.636719 4.15625 C 10.523438 4.355469 10.523438 4.601562 10.636719 4.800781 C 10.753906 5.003906 10.96875 5.125 11.199219 5.121094 L 14.71875 5.121094 L 14.71875 1.601562 C 14.722656 1.425781 14.65625 1.261719 14.53125 1.136719 C 14.410156 1.015625 14.242188 0.949219 14.070312 0.953125 C 13.71875 0.957031 13.433594 1.246094 13.441406 1.601562 L 13.441406 3.046875 C 12.09375 1.570312 10.152344 0.640625 8 0.640625 Z M 8 0.640625 "/>
</g>
</svg>
