<?xml version="1.0" encoding="UTF-8"?>
<svg xmlns="http://www.w3.org/2000/svg" xmlns:xlink="http://www.w3.org/1999/xlink" width="18px" height="18px" viewBox="0 0 18 18" version="1.1">
<g id="surface1">
<path style=" stroke:none;fill-rule:nonzero;fill:rgb(85.882353%,69.019608%,39.607843%);fill-opacity:1;" d="M 0.5625 16.085938 L 0.5625 1.914062 L 5.351562 1.914062 L 6.703125 3.261719 L 17.4375 3.261719 L 17.4375 16.085938 Z M 0.5625 16.085938 "/>
<path style=" stroke:none;fill-rule:nonzero;fill:rgb(58.823529%,47.843137%,26.666667%);fill-opacity:1;" d="M 5.308594 2.023438 L 6.589844 3.308594 L 6.65625 3.375 L 17.324219 3.375 L 17.324219 15.976562 L 0.675781 15.976562 L 0.675781 2.023438 L 5.308594 2.023438 M 5.398438 1.800781 L 0.449219 1.800781 L 0.449219 16.199219 L 17.550781 16.199219 L 17.550781 3.148438 L 6.75 3.148438 Z M 5.398438 1.800781 "/>
<path style=" stroke:none;fill-rule:nonzero;fill:rgb(96.078431%,80.784314%,52.156863%);fill-opacity:1;" d="M 0.5625 16.085938 L 0.5625 4.164062 L 5.433594 4.164062 L 6.785156 3.261719 L 17.4375 3.261719 L 17.4375 16.085938 Z M 0.5625 16.085938 "/>
<path style=" stroke:none;fill-rule:nonzero;fill:rgb(58.823529%,47.843137%,26.666667%);fill-opacity:1;" d="M 17.324219 3.375 L 17.324219 15.976562 L 0.675781 15.976562 L 0.675781 4.273438 L 5.46875 4.273438 L 5.523438 4.238281 L 6.816406 3.375 L 17.324219 3.375 M 17.550781 3.148438 L 6.75 3.148438 L 5.398438 4.050781 L 0.449219 4.050781 L 0.449219 16.199219 L 17.550781 16.199219 Z M 17.550781 3.148438 "/>
<path style=" stroke:none;fill-rule:nonzero;fill:rgb(100%,98.039216%,87.843137%);fill-opacity:1;" d="M 9 14.0625 C 8.070312 14.0625 7.3125 13.304688 7.3125 12.375 C 7.3125 12.117188 7.46875 11.257812 7.753906 9.953125 C 7.832031 9.589844 8.148438 9.335938 8.523438 9.335938 L 9.476562 9.335938 C 9.851562 9.335938 10.167969 9.589844 10.246094 9.953125 C 10.53125 11.257812 10.6875 12.117188 10.6875 12.375 C 10.6875 13.304688 9.929688 14.0625 9 14.0625 Z M 9 14.0625 "/>
<path style=" stroke:none;fill-rule:nonzero;fill:rgb(58.823529%,47.843137%,26.666667%);fill-opacity:1;" d="M 9.476562 9.449219 C 9.796875 9.449219 10.070312 9.667969 10.136719 9.980469 C 10.414062 11.253906 10.574219 12.128906 10.574219 12.375 C 10.574219 13.242188 9.867188 13.949219 9 13.949219 C 8.132812 13.949219 7.425781 13.242188 7.425781 12.375 C 7.425781 12.128906 7.585938 11.253906 7.863281 9.980469 C 7.929688 9.667969 8.203125 9.449219 8.523438 9.449219 L 9.476562 9.449219 M 9.476562 9.226562 L 8.523438 9.226562 C 8.097656 9.226562 7.734375 9.515625 7.644531 9.929688 C 7.464844 10.746094 7.199219 12.023438 7.199219 12.375 C 7.199219 13.367188 8.007812 14.175781 9 14.175781 C 9.992188 14.175781 10.800781 13.367188 10.800781 12.375 C 10.800781 12.023438 10.535156 10.746094 10.355469 9.929688 C 10.265625 9.515625 9.902344 9.226562 9.476562 9.226562 Z M 9.476562 9.226562 "/>
<path style=" stroke:none;fill-rule:nonzero;fill:rgb(58.823529%,47.843137%,26.666667%);fill-opacity:1;" d="M 9 11.699219 C 8.628906 11.699219 8.324219 12.003906 8.324219 12.375 C 8.324219 12.746094 8.628906 13.050781 9 13.050781 C 9.371094 13.050781 9.675781 12.746094 9.675781 12.375 C 9.675781 12.003906 9.371094 11.699219 9 11.699219 Z M 10.125 8.773438 L 9 8.773438 L 8.550781 8.324219 L 10.125 8.324219 Z M 10.125 8.773438 "/>
<path style=" stroke:none;fill-rule:nonzero;fill:rgb(58.823529%,47.843137%,26.666667%);fill-opacity:1;" d="M 10.125 8.324219 C 10 8.324219 9.898438 8.425781 9.898438 8.550781 C 9.898438 8.675781 10 8.773438 10.125 8.773438 C 10.25 8.773438 10.351562 8.675781 10.351562 8.550781 C 10.351562 8.425781 10.25 8.324219 10.125 8.324219 Z M 7.875 9.226562 L 9 9.226562 L 9.449219 8.773438 L 7.875 8.773438 Z M 7.875 9.226562 "/>
<path style=" stroke:none;fill-rule:nonzero;fill:rgb(58.823529%,47.843137%,26.666667%);fill-opacity:1;" d="M 7.875 8.773438 C 7.75 8.773438 7.648438 8.875 7.648438 9 C 7.648438 9.125 7.75 9.226562 7.875 9.226562 C 8 9.226562 8.101562 9.125 8.101562 9 C 8.101562 8.875 8 8.773438 7.875 8.773438 Z M 10.125 7.875 L 9 7.875 L 8.550781 7.425781 L 10.125 7.425781 Z M 10.125 7.875 "/>
<path style=" stroke:none;fill-rule:nonzero;fill:rgb(58.823529%,47.843137%,26.666667%);fill-opacity:1;" d="M 10.125 7.425781 C 10 7.425781 9.898438 7.527344 9.898438 7.648438 C 9.898438 7.773438 10 7.875 10.125 7.875 C 10.25 7.875 10.351562 7.773438 10.351562 7.648438 C 10.351562 7.527344 10.25 7.425781 10.125 7.425781 Z M 7.875 8.324219 L 9 8.324219 L 9.449219 7.875 L 7.875 7.875 Z M 7.875 8.324219 "/>
<path style=" stroke:none;fill-rule:nonzero;fill:rgb(58.823529%,47.843137%,26.666667%);fill-opacity:1;" d="M 7.875 7.875 C 7.75 7.875 7.648438 7.976562 7.648438 8.101562 C 7.648438 8.222656 7.75 8.324219 7.875 8.324219 C 8 8.324219 8.101562 8.222656 8.101562 8.101562 C 8.101562 7.976562 8 7.875 7.875 7.875 Z M 10.125 6.976562 L 9 6.976562 L 8.550781 6.523438 L 10.125 6.523438 Z M 10.125 6.976562 "/>
<path style=" stroke:none;fill-rule:nonzero;fill:rgb(58.823529%,47.843137%,26.666667%);fill-opacity:1;" d="M 10.125 6.523438 C 10 6.523438 9.898438 6.625 9.898438 6.75 C 9.898438 6.875 10 6.976562 10.125 6.976562 C 10.25 6.976562 10.351562 6.875 10.351562 6.75 C 10.351562 6.625 10.25 6.523438 10.125 6.523438 Z M 7.875 7.425781 L 9 7.425781 L 9.449219 6.976562 L 7.875 6.976562 Z M 7.875 7.425781 "/>
<path style=" stroke:none;fill-rule:nonzero;fill:rgb(58.823529%,47.843137%,26.666667%);fill-opacity:1;" d="M 7.875 6.976562 C 7.75 6.976562 7.648438 7.074219 7.648438 7.199219 C 7.648438 7.324219 7.75 7.425781 7.875 7.425781 C 8 7.425781 8.101562 7.324219 8.101562 7.199219 C 8.101562 7.074219 8 6.976562 7.875 6.976562 Z M 10.125 6.074219 L 9 6.074219 L 8.550781 5.625 L 10.125 5.625 Z M 10.125 6.074219 "/>
<path style=" stroke:none;fill-rule:nonzero;fill:rgb(58.823529%,47.843137%,26.666667%);fill-opacity:1;" d="M 10.125 5.625 C 10 5.625 9.898438 5.726562 9.898438 5.851562 C 9.898438 5.972656 10 6.074219 10.125 6.074219 C 10.25 6.074219 10.351562 5.972656 10.351562 5.851562 C 10.351562 5.726562 10.25 5.625 10.125 5.625 Z M 7.875 6.523438 L 9 6.523438 L 9.449219 6.074219 L 7.875 6.074219 Z M 7.875 6.523438 "/>
<path style=" stroke:none;fill-rule:nonzero;fill:rgb(58.823529%,47.843137%,26.666667%);fill-opacity:1;" d="M 7.875 6.074219 C 7.75 6.074219 7.648438 6.175781 7.648438 6.300781 C 7.648438 6.425781 7.75 6.523438 7.875 6.523438 C 8 6.523438 8.101562 6.425781 8.101562 6.300781 C 8.101562 6.175781 8 6.074219 7.875 6.074219 Z M 10.125 5.175781 L 9 5.175781 L 8.550781 4.726562 L 10.125 4.726562 Z M 10.125 5.175781 "/>
<path style=" stroke:none;fill-rule:nonzero;fill:rgb(58.823529%,47.843137%,26.666667%);fill-opacity:1;" d="M 10.125 4.726562 C 10 4.726562 9.898438 4.824219 9.898438 4.949219 C 9.898438 5.074219 10 5.175781 10.125 5.175781 C 10.25 5.175781 10.351562 5.074219 10.351562 4.949219 C 10.351562 4.824219 10.25 4.726562 10.125 4.726562 Z M 7.875 5.625 L 9 5.625 L 9.449219 5.175781 L 7.875 5.175781 Z M 7.875 5.625 "/>
<path style=" stroke:none;fill-rule:nonzero;fill:rgb(58.823529%,47.843137%,26.666667%);fill-opacity:1;" d="M 7.875 5.175781 C 7.75 5.175781 7.648438 5.277344 7.648438 5.398438 C 7.648438 5.523438 7.75 5.625 7.875 5.625 C 8 5.625 8.101562 5.523438 8.101562 5.398438 C 8.101562 5.277344 8 5.175781 7.875 5.175781 Z M 10.125 4.273438 L 9 4.273438 L 8.550781 3.824219 L 10.125 3.824219 Z M 10.125 4.273438 "/>
<path style=" stroke:none;fill-rule:nonzero;fill:rgb(58.823529%,47.843137%,26.666667%);fill-opacity:1;" d="M 10.125 3.824219 C 10 3.824219 9.898438 3.925781 9.898438 4.050781 C 9.898438 4.175781 10 4.273438 10.125 4.273438 C 10.25 4.273438 10.351562 4.175781 10.351562 4.050781 C 10.351562 3.925781 10.25 3.824219 10.125 3.824219 Z M 7.875 4.726562 L 9 4.726562 L 9.449219 4.273438 L 7.875 4.273438 Z M 7.875 4.726562 "/>
<path style=" stroke:none;fill-rule:nonzero;fill:rgb(58.823529%,47.843137%,26.666667%);fill-opacity:1;" d="M 7.875 4.273438 C 7.75 4.273438 7.648438 4.375 7.648438 4.5 C 7.648438 4.625 7.75 4.726562 7.875 4.726562 C 8 4.726562 8.101562 4.625 8.101562 4.5 C 8.101562 4.375 8 4.273438 7.875 4.273438 Z M 7.875 4.273438 "/>
<path style=" stroke:none;fill-rule:nonzero;fill:rgb(58.823529%,47.843137%,26.666667%);fill-opacity:1;" d="M 7.875 3.824219 L 9 3.824219 L 9.449219 3.375 L 7.875 3.375 Z M 7.875 3.824219 "/>
<path style=" stroke:none;fill-rule:nonzero;fill:rgb(58.823529%,47.843137%,26.666667%);fill-opacity:1;" d="M 7.875 3.375 C 7.75 3.375 7.648438 3.476562 7.648438 3.601562 C 7.648438 3.722656 7.75 3.824219 7.875 3.824219 C 8 3.824219 8.101562 3.722656 8.101562 3.601562 C 8.101562 3.476562 8 3.375 7.875 3.375 Z M 7.875 3.375 "/>
</g>
</svg>
