<svg xmlns="http://www.w3.org/2000/svg" xmlns:xlink="http://www.w3.org/1999/xlink" viewBox="0 0 40 40"><path fill="#dbb065" d="M1.5 35.5L1.5 4.5 11.793 4.5 14.793 7.5 38.5 7.5 38.5 35.5z"/><path fill="#967a44" d="M11.586,5l2.707,2.707L14.586,8H15h23v27H2V5H11.586 M12,4H1v32h38V7H15L12,4L12,4z"/><path fill="#f5ce85" d="M1.5 35.5L1.5 9.5 12.151 9.5 15.151 7.5 38.5 7.5 38.5 35.5z"/><path fill="#967a44" d="M38,8v27H2V10h10h0.303l0.252-0.168L15.303,8H38 M39,7H15l-3,2H1v27h38V7L39,7z"/><path fill="#8bb7f0" d="M11.5 17.5H29.5V26.5H11.5z"/><path fill="#4e7ab5" d="M29,18v8H12v-8H29 M30,17H11v10h19V17L30,17z"/><path fill="#4e7ab5" d="M29,15v2H12v-2H29 M30,14H11v4h19V14L30,14z"/><path fill="#4e7ab5" d="M14 14H15V18H14zM17 14H18V18H17zM20 14H21V18H20zM23 14H24V18H23zM26 14H27V18H26zM29 27v2H12v-2H29M30 26H11v4h19V26L30 26z"/><path fill="#4e7ab5" d="M14 26H15V30H14zM17 26H18V30H17zM20 26H21V30H20zM23 26H24V30H23zM26 26H27V30H26z"/></svg>