<?xml version="1.0" encoding="UTF-8"?>
<svg xmlns="http://www.w3.org/2000/svg" xmlns:xlink="http://www.w3.org/1999/xlink" width="16pt" height="16pt" viewBox="0 0 16 16" version="1.1">
<g id="surface1">
<path style=" stroke:none;fill-rule:nonzero;fill:#3a3c42;fill-opacity:1;" d="M 1.601562 0.960938 C 1.070312 0.960938 0.640625 1.390625 0.640625 1.921875 L 0.640625 3.839844 L 15.359375 3.839844 L 15.359375 3.199219 C 15.359375 2.671875 14.929688 2.238281 14.398438 2.238281 L 5.773438 2.242188 C 5.6875 2.207031 5.5 1.917969 5.402344 1.757812 C 5.15625 1.367188 4.902344 0.960938 4.480469 0.960938 Z M 0.960938 4.480469 C 0.785156 4.480469 0.640625 4.625 0.640625 4.800781 L 0.640625 13.441406 C 0.640625 13.972656 1.070312 14.398438 1.601562 14.398438 L 2.558594 14.398438 L 2.558594 8.960938 C 2.558594 8.785156 2.703125 8.640625 2.878906 8.640625 L 13.121094 8.640625 C 13.296875 8.640625 13.441406 8.785156 13.441406 8.960938 L 13.441406 14.398438 L 14.398438 14.398438 C 14.929688 14.398438 15.359375 13.972656 15.359375 13.441406 L 15.359375 4.800781 C 15.359375 4.625 15.214844 4.480469 15.039062 4.480469 Z M 3.199219 9.28125 L 3.199219 15.039062 L 5.121094 15.039062 L 5.121094 11.519531 C 5.121094 11.34375 5.265625 11.199219 5.441406 11.199219 L 10.558594 11.199219 C 10.734375 11.199219 10.878906 11.34375 10.878906 11.519531 L 10.878906 15.039062 L 12.800781 15.039062 L 12.800781 9.28125 Z M 5.761719 11.839844 L 5.761719 14.398438 L 10.238281 14.398438 L 10.238281 11.839844 Z M 5.761719 11.839844 "/>
</g>
</svg>
