<?xml version="1.0" encoding="UTF-8"?>
<svg xmlns="http://www.w3.org/2000/svg" xmlns:xlink="http://www.w3.org/1999/xlink" width="16pt" height="16pt" viewBox="0 0 16 16" version="1.1">
<g id="surface1">
<path style=" stroke:none;fill-rule:nonzero;fill:#3a3c42;fill-opacity:1;" d="M 11.839844 1.28125 C 11.101562 1.28125 10.363281 1.5625 9.804688 2.125 L 8.203125 3.722656 C 7.40625 4.519531 7.179688 5.671875 7.511719 6.675781 L 8.664062 5.527344 C 8.710938 5.199219 8.855469 4.882812 9.109375 4.628906 L 10.707031 3.027344 C 11.019531 2.71875 11.429688 2.5625 11.839844 2.5625 C 12.25 2.5625 12.660156 2.714844 12.972656 3.027344 C 13.59375 3.652344 13.59375 4.667969 12.972656 5.292969 L 11.371094 6.890625 C 11.117188 7.144531 10.800781 7.289062 10.472656 7.335938 L 9.324219 8.488281 C 9.621094 8.585938 9.929688 8.640625 10.238281 8.640625 C 10.976562 8.640625 11.714844 8.359375 12.277344 7.796875 L 13.875 6.195312 C 15 5.074219 15 3.246094 13.875 2.125 C 13.316406 1.5625 12.578125 1.28125 11.839844 1.28125 Z M 9.90625 5.433594 C 9.742188 5.4375 9.582031 5.507812 9.46875 5.628906 L 5.628906 9.46875 C 5.460938 9.628906 5.394531 9.867188 5.453125 10.089844 C 5.511719 10.316406 5.683594 10.488281 5.910156 10.546875 C 6.132812 10.605469 6.371094 10.539062 6.53125 10.371094 L 10.371094 6.53125 C 10.5625 6.347656 10.617188 6.066406 10.515625 5.824219 C 10.414062 5.582031 10.171875 5.425781 9.90625 5.433594 Z M 5.902344 7.367188 C 5.117188 7.328125 4.320312 7.605469 3.722656 8.203125 L 2.125 9.804688 C 1 10.925781 1 12.753906 2.125 13.875 C 2.683594 14.4375 3.421875 14.71875 4.160156 14.71875 C 4.898438 14.71875 5.632812 14.4375 6.195312 13.875 L 7.796875 12.277344 C 8.59375 11.476562 8.820312 10.328125 8.488281 9.324219 L 7.335938 10.472656 C 7.289062 10.800781 7.144531 11.117188 6.890625 11.371094 L 5.292969 12.972656 C 4.667969 13.59375 3.652344 13.59375 3.027344 12.972656 C 2.40625 12.347656 2.40625 11.332031 3.027344 10.707031 L 4.628906 9.109375 C 4.882812 8.855469 5.199219 8.710938 5.527344 8.664062 L 6.675781 7.511719 C 6.425781 7.429688 6.164062 7.378906 5.902344 7.367188 Z M 5.902344 7.367188 "/>
</g>
</svg>
