<?xml version="1.0" encoding="UTF-8"?>
<svg xmlns="http://www.w3.org/2000/svg" xmlns:xlink="http://www.w3.org/1999/xlink" width="16pt" height="16pt" viewBox="0 0 16 16" version="1.1">
<g id="surface1">
<path style=" stroke:none;fill-rule:nonzero;fill:#3a3c42;fill-opacity:1;" d="M 3.332031 2 C 2.597656 2 2 2.597656 2 3.332031 L 2 12.667969 C 2 13.402344 2.597656 14 3.332031 14 L 8.195312 14 C 8.070312 13.578125 8 13.128906 8 12.667969 L 3.332031 12.667969 L 3.332031 6 L 12.667969 6 L 12.667969 8 C 13.128906 8 13.578125 8.070312 14 8.195312 L 14 3.332031 C 14 2.597656 13.402344 2 12.667969 2 Z M 3.332031 3.332031 L 12.667969 3.332031 L 12.667969 4.667969 L 3.332031 4.667969 Z M 4.667969 7.332031 L 4.667969 8.667969 L 6 8.667969 L 6 7.332031 Z M 7.332031 7.332031 L 7.332031 8.667969 L 10.273438 8.667969 C 10.601562 8.46875 10.957031 8.308594 11.332031 8.195312 L 11.332031 7.332031 Z M 12.667969 9.332031 C 10.824219 9.332031 9.332031 10.824219 9.332031 12.667969 C 9.332031 14.507812 10.824219 16 12.667969 16 C 14.507812 16 16 14.507812 16 12.667969 C 16 10.824219 14.507812 9.332031 12.667969 9.332031 Z M 4.667969 10 L 4.667969 11.332031 L 6 11.332031 L 6 10 Z M 7.332031 10 L 7.332031 11.332031 L 8.195312 11.332031 C 8.339844 10.851562 8.558594 10.402344 8.839844 10 Z M 10.667969 12 L 14.667969 12 L 14.667969 13.332031 L 10.667969 13.332031 Z M 10.667969 12 "/>
</g>
</svg>
