<?xml version="1.0" encoding="UTF-8"?>
<svg xmlns="http://www.w3.org/2000/svg" xmlns:xlink="http://www.w3.org/1999/xlink" width="16pt" height="16pt" viewBox="0 0 16 16" version="1.1">
<g id="surface1">
<path style=" stroke:none;fill-rule:nonzero;fill:#3a3c42;fill-opacity:1;" d="M 8 2 L 8 3.332031 C 8.554688 3.332031 8.949219 3.46875 9.203125 3.597656 C 9.265625 3.628906 9.289062 3.648438 9.332031 3.671875 L 9.332031 12.328125 C 9.289062 12.351562 9.265625 12.371094 9.203125 12.402344 C 8.949219 12.53125 8.554688 12.667969 8 12.667969 L 8 14 C 8.777344 14 9.386719 13.804688 9.796875 13.597656 C 9.921875 13.535156 9.90625 13.519531 10 13.457031 C 10.09375 13.519531 10.078125 13.535156 10.203125 13.597656 C 10.613281 13.804688 11.222656 14 12 14 L 12 12.667969 C 11.445312 12.667969 11.050781 12.53125 10.796875 12.402344 C 10.734375 12.371094 10.710938 12.351562 10.667969 12.328125 L 10.667969 3.671875 C 10.710938 3.648438 10.734375 3.628906 10.796875 3.597656 C 11.050781 3.46875 11.445312 3.332031 12 3.332031 L 12 2 C 11.222656 2 10.613281 2.195312 10.203125 2.402344 C 10.078125 2.464844 10.09375 2.480469 10 2.542969 C 9.90625 2.480469 9.921875 2.464844 9.796875 2.402344 C 9.386719 2.195312 8.777344 2 8 2 Z M 2.667969 5.332031 C 1.9375 5.332031 1.332031 5.9375 1.332031 6.667969 L 1.332031 9.332031 C 1.332031 10.0625 1.9375 10.667969 2.667969 10.667969 L 8 10.667969 L 8 9.332031 L 2.667969 9.332031 L 2.667969 6.667969 L 8 6.667969 L 8 5.332031 Z M 12 5.332031 L 12 6.667969 L 13.332031 6.667969 L 13.332031 9.332031 L 12 9.332031 L 12 10.667969 L 13.332031 10.667969 C 14.0625 10.667969 14.667969 10.0625 14.667969 9.332031 L 14.667969 6.667969 C 14.667969 5.9375 14.0625 5.332031 13.332031 5.332031 Z M 12 5.332031 "/>
</g>
</svg>
