<?xml version="1.0" encoding="UTF-8"?>
<svg xmlns="http://www.w3.org/2000/svg" xmlns:xlink="http://www.w3.org/1999/xlink" width="16pt" height="16pt" viewBox="0 0 16 16" version="1.1">
<g id="surface1">
<path style=" stroke:none;fill-rule:nonzero;fill:#3a3c42;fill-opacity:1;" d="M 7 2 C 6.738281 2 6.46875 2.09375 6.28125 2.28125 C 6.09375 2.46875 6 2.738281 6 3 L 6 3.5 L 2.5 3.5 L 2.5 4.5 L 3.046875 4.5 L 4 13.546875 L 4.046875 14 L 11.953125 14 L 12 13.546875 L 12.953125 4.5 L 13.5 4.5 L 13.5 3.5 L 10 3.5 L 10 3 C 10 2.738281 9.90625 2.46875 9.71875 2.28125 C 9.53125 2.09375 9.261719 2 9 2 Z M 7 3 L 9 3 L 9 3.5 L 7 3.5 Z M 4.0625 4.5 L 11.9375 4.5 L 11.046875 13 L 4.953125 13 Z M 6 6 L 6 11.5 L 7 11.5 L 7 6 Z M 7.5 6 L 7.5 11.5 L 8.5 11.5 L 8.5 6 Z M 9 6 L 9 11.5 L 10 11.5 L 10 6 Z M 9 6 "/>
</g>
</svg>
